<svg xmlns="http://www.w3.org/2000/svg" xmlns:xlink="http://www.w3.org/1999/xlink" viewBox="0 0 376.46 376.46"><defs><style>.cls-1{fill:none;}.cls-2{clip-path:url(#clip-path);}.cls-3{fill:#4272b8;}.cls-4{fill:#fff;}</style><clipPath id="clip-path"><rect class="cls-1" x="0.04" y="0.01" width="376.42" height="376.45"/></clipPath></defs><g id="Layer_2" data-name="Layer 2"><g id="Layer_1-2" data-name="Layer 1"><g class="cls-2"><path class="cls-3" d="M376.46,188.23C376.46,84.27,292.19,0,188.23,0S0,84.27,0,188.23c0,94,68.83,171.83,158.82,186V242.64H111V188.23h47.79V146.76c0-47.17,28.1-73.23,71.1-73.23a289.91,289.91,0,0,1,42.13,3.67v46.33H248.32c-23.39,0-30.68,14.51-30.68,29.39v35.31h52.21l-8.35,54.41H217.64V374.18c90-14.12,158.82-92,158.82-186Z"/></g><path class="cls-4" d="M261.5,242.64l8.35-54.41H217.64V152.92c0-14.88,7.29-29.39,30.68-29.39h23.73V77.2a289.91,289.91,0,0,0-42.13-3.67c-43,0-71.1,26.06-71.1,73.23v41.47H111v54.41h47.79V374.18a190.82,190.82,0,0,0,58.82,0V242.64Z"/></g></g></svg>