<svg xmlns="http://www.w3.org/2000/svg" xmlns:xlink="http://www.w3.org/1999/xlink" viewBox="0 0 350 357.16"><defs><style>.cls-1{fill:none;}.cls-2{clip-path:url(#clip-path);}.cls-3{fill:#fff;}.cls-4{fill:#e94435;}.cls-5{fill:#f6bb17;}.cls-6{fill:#547dbf;}.cls-7{fill:#33a74f;}</style><clipPath id="clip-path" transform="translate(0 0)"><rect class="cls-1" width="350" height="357.16"/></clipPath></defs><g id="Layer_2" data-name="Layer 2"><g id="Layer_1-2" data-name="Layer 1"><g class="cls-2"><path class="cls-3" d="M120.2,9.79A179.36,179.36,0,0,0,19,98.41a178.35,178.35,0,0,0,0,160.36A180.06,180.06,0,0,0,67.53,318.4a178,178,0,0,0,64.89,32.72c29.75,8,61.42,7.79,91.36,1,27.07-6.23,52.67-19.16,73.11-38,21.61-19.85,37-46,45.19-74.13,8.9-30.67,10.13-63.41,4.55-94.81q-84,0-168,0,0,34.86,0,69.7,48.66,0,97.32,0A83.91,83.91,0,0,1,240.15,270a101.94,101.94,0,0,1-39.32,15.52c-14.06,2.4-28.59,2.71-42.61-.13a104.89,104.89,0,0,1-39.76-17.16,111,111,0,0,1-40.93-54.84,108.16,108.16,0,0,1,0-69.54,110.94,110.94,0,0,1,25.92-42.11A104.92,104.92,0,0,1,209.25,74.23a96.62,96.62,0,0,1,38.5,22.62Q264.22,80.47,280.61,64C286.36,58.13,292.4,52.5,298,46.45a172.87,172.87,0,0,0-57.47-35.61A180.61,180.61,0,0,0,120.2,9.79Z" transform="translate(0 0)"/><path class="cls-4" d="M120.2,9.79a180.61,180.61,0,0,1,120.29,1.05A172.87,172.87,0,0,1,298,46.45c-5.56,6-11.6,11.68-17.35,17.56q-16.44,16.41-32.86,32.84a96.62,96.62,0,0,0-38.5-22.62,104.92,104.92,0,0,0-105.77,27.48,110.94,110.94,0,0,0-25.92,42.11L19,98.41A179.36,179.36,0,0,1,120.2,9.79Z" transform="translate(0 0)"/><path class="cls-5" d="M3.52,143.29A177.13,177.13,0,0,1,19,98.41l58.52,45.41a108.16,108.16,0,0,0,0,69.54Q48.28,236.06,19,258.77A178.78,178.78,0,0,1,3.52,143.29Z" transform="translate(0 0)"/><path class="cls-6" d="M178.58,145.11q84,0,168,0c5.58,31.4,4.35,64.14-4.55,94.81-8.16,28.11-23.58,54.28-45.19,74.13C278,299.34,259,284.7,240.15,270a83.91,83.91,0,0,0,35.76-55.16q-48.66,0-97.32,0-.06-34.84,0-69.7Z" transform="translate(0 0)"/><path class="cls-7" d="M19,258.77q29.29-22.68,58.52-45.41a111,111,0,0,0,40.93,54.84,104.89,104.89,0,0,0,39.76,17.16c14,2.84,28.55,2.53,42.61.13A101.94,101.94,0,0,0,240.15,270C259,284.7,278,299.34,296.89,314.06c-20.44,18.88-46,31.81-73.11,38-29.94,6.81-61.61,7-91.36-1A178,178,0,0,1,67.53,318.4,180.06,180.06,0,0,1,19,258.77Z" transform="translate(0 0)"/></g></g></g></svg>