<svg xmlns="http://www.w3.org/2000/svg" viewBox="0 0 1043.65 1001.9"><defs><style>.cls-1{fill:#fff;}</style></defs><g id="Layer_2" data-name="Layer 2"><g id="Calque_2" data-name="Calque 2"><path class="cls-1" d="M521.82,0C233.63,0,0,233.63,0,521.82a522.47,522.47,0,0,0,315.32,479.36,210.07,210.07,0,0,1,181.17-166,209.22,209.22,0,0,1,48.84,0A210,210,0,0,1,726.64,1001.9a520.1,520.1,0,0,0,94.21-52.39A314.39,314.39,0,0,0,545.33,730.29q-12.09-.93-24.42-.94t-24.42.94a312.51,312.51,0,0,0-150.85,52.44,315.94,315.94,0,0,0-75.87,71.94A419.44,419.44,0,0,1,139.15,688.88,416.37,416.37,0,0,1,104.4,521.82c0-230.63,187-417.6,417.6-417.6s417.6,187,417.6,417.6a418.26,418.26,0,0,1-13.46,105.55A583.57,583.57,0,0,1,1004.26,721a520.23,520.23,0,0,0,39.39-199.22C1043.65,233.63,810,0,521.82,0Z"/><path class="cls-1" d="M820.85,616a522.5,522.5,0,0,0-505.53-51.67,210.75,210.75,0,0,1-4.3-42.47c0-6.52.31-13,.89-19.35,9.77-106.84,99.61-190.54,209-190.54,109.14,0,198.82,83.31,208.93,189.81A578.25,578.25,0,0,1,833.56,554.1a318.7,318.7,0,0,0,1.64-32.28c0-173.58-140.71-314.29-314.29-314.29S206.62,348.24,206.62,521.82a316.88,316.88,0,0,0,1.76,33.36A312.83,312.83,0,0,0,269.77,710.8a417.94,417.94,0,0,1,635,165.53,523.21,523.21,0,0,0,69.1-93.6A524.53,524.53,0,0,0,820.85,616Z"/></g></g></svg>